<svg width="19" height="18" viewBox="0 0 19 18" fill="none" xmlns="http://www.w3.org/2000/svg">
<path d="M2.89895 12.6C2.89895 13.2365 3.15184 13.847 3.60199 14.2971C4.05214 14.7471 4.66267 15 5.29927 15C5.29927 15.5304 5.51001 16.0391 5.88514 16.4142C6.26026 16.7893 6.76903 17 7.29954 17C7.83004 17 8.33882 16.7893 8.71394 16.4142C9.08906 16.0391 9.2998 15.5304 9.2998 15C9.2998 15.5304 9.51055 16.0391 9.88567 16.4142C10.2608 16.7893 10.7696 17 11.3001 17C11.8306 17 12.3394 16.7893 12.7145 16.4142C13.0896 16.0391 13.3003 15.5304 13.3003 15C13.7259 15 14.1438 14.887 14.5112 14.6724C14.8787 14.4577 15.1824 14.1493 15.3914 13.7787C15.6004 13.4081 15.7071 12.9885 15.7006 12.5631C15.694 12.1377 15.5745 11.7216 15.3542 11.3576C15.9019 11.2518 16.3956 10.9587 16.7506 10.5285C17.1056 10.0984 17.2998 9.5581 17.2998 9.0004C17.2998 8.4427 17.1056 7.9024 16.7506 7.47227C16.3956 7.04214 15.9019 6.749 15.3542 6.6432C15.5747 6.27915 15.6944 5.86302 15.7011 5.43747C15.7077 5.01192 15.601 4.59226 15.392 4.2215C15.183 3.85074 14.8791 3.54223 14.5116 3.32758C14.144 3.11294 13.726 2.99988 13.3003 3C13.3003 2.46957 13.0896 1.96086 12.7145 1.58579C12.3394 1.21071 11.8306 1 11.3001 1C10.7696 1 10.2608 1.21071 9.88567 1.58579C9.51055 1.96086 9.2998 2.46957 9.2998 3C9.2998 2.46957 9.08906 1.96086 8.71394 1.58579C8.33882 1.21071 7.83004 1 7.29954 1C6.76903 1 6.26026 1.21071 5.88514 1.58579C5.51001 1.96086 5.29927 2.46957 5.29927 3C4.87373 2.99996 4.45584 3.11304 4.08839 3.32765C3.72095 3.54225 3.41717 3.85067 3.20818 4.2213C2.99918 4.59194 2.89249 5.01146 2.89903 5.43689C2.90557 5.86232 3.02511 6.27837 3.2454 6.6424C2.69776 6.7482 2.20404 7.04134 1.84901 7.47147C1.49399 7.9016 1.2998 8.4419 1.2998 8.9996C1.2998 9.5573 1.49399 10.0976 1.84901 10.5277C2.20404 10.9579 2.69776 11.251 3.2454 11.3568C3.01856 11.7318 2.89875 12.1617 2.89895 12.6Z" stroke="#374151" stroke-width="1.5" stroke-linecap="round" stroke-linejoin="round"/>
<path d="M5.69922 11.0002L7.17301 6.5794C7.21001 6.46907 7.28074 6.37316 7.37521 6.3052C7.46968 6.23725 7.58311 6.20069 7.69949 6.20069C7.81586 6.20069 7.9293 6.23725 8.02376 6.3052C8.11823 6.37316 8.18896 6.46907 8.22596 6.5794L9.69975 11.0002M12.1001 6.2002V11.0002M6.49933 9.4002H8.89964" stroke="#374151" stroke-width="1.5" stroke-linecap="round" stroke-linejoin="round"/>
</svg>
