<svg width="17" height="16" viewBox="0 0 17 16" fill="none" xmlns="http://www.w3.org/2000/svg">
<g clip-path="url(#clip0_193_307)">
<path d="M13.2998 2.5H14.2998C14.565 2.5 14.8194 2.60536 15.0069 2.79289C15.1944 2.98043 15.2998 3.23478 15.2998 3.5V14.5C15.2998 14.7652 15.1944 15.0196 15.0069 15.2071C14.8194 15.3946 14.565 15.5 14.2998 15.5H9.2998M7.2998 15.5V11.5H5.2998V8.5H7.2998V4.5H9.2998V0.5" stroke="#374151" stroke-width="1.5" stroke-linecap="round" stroke-linejoin="round"/>
<path d="M7.2998 2.47867L9.2998 0.5L11.2998 2.47867M10.2998 10.5V13.5M4.7998 2.5H2.2998C2.03459 2.5 1.78023 2.60536 1.5927 2.79289C1.40516 2.98043 1.2998 3.23478 1.2998 3.5V14.5C1.2998 14.7652 1.40516 15.0196 1.5927 15.2071C1.78023 15.3946 2.03459 15.5 2.2998 15.5H5.2998V13.5H3.2998V12M12.2998 15.5V9.5H13.2998M15.2998 7.5H10.2998V8.5" stroke="#374151" stroke-width="1.5" stroke-linecap="round" stroke-linejoin="round"/>
<path d="M3.2998 5V6.5H4.7998M12.2998 7.5V5.5" stroke="#374151" stroke-width="1.5" stroke-linecap="round" stroke-linejoin="round"/>
</g>
<defs>
<clipPath id="clip0_193_307">
<rect width="16" height="16" fill="white" transform="translate(0.299805)"/>
</clipPath>
</defs>
</svg>
