<svg width="11" height="14" viewBox="0 0 11 14" fill="none" xmlns="http://www.w3.org/2000/svg">
<path d="M4.28408 10.6609H4.96367V7.32952H6.29621V10.6609H6.9758C7.02022 10.2789 7.14459 9.90575 7.34891 9.54152C7.52658 9.21283 7.78865 8.85749 8.1351 8.4755L8.32166 8.27562C8.57928 8.00911 8.72142 7.86253 8.74807 7.83588C9.03234 7.48054 9.24999 7.08966 9.40101 6.66325C9.55203 6.23684 9.62754 5.79266 9.62754 5.33072C9.62754 4.61115 9.44543 3.94044 9.0812 3.31859C8.72586 2.71451 8.24615 2.2348 7.64207 1.87945C7.02022 1.51523 6.34951 1.33311 5.62994 1.33311C4.91037 1.33311 4.23966 1.51523 3.61781 1.87945C3.01373 2.2348 2.53402 2.71451 2.17868 3.31859C1.81445 3.94044 1.63234 4.61115 1.63234 5.33072C1.63234 5.79266 1.70785 6.23684 1.85887 6.66325C2.00989 7.08966 2.22754 7.4761 2.51181 7.82256C2.53846 7.85809 2.6806 8.00911 2.93822 8.27562L3.12478 8.4755C3.47124 8.85749 3.7333 9.21283 3.91097 9.54152C4.11529 9.90575 4.23966 10.2789 4.28408 10.6609ZM4.29741 11.9934V12.6597H6.96247V11.9934H4.29741ZM1.47243 8.66205C1.09933 8.20011 0.810609 7.6893 0.606287 7.12964C0.401966 6.55221 0.299805 5.95257 0.299805 5.33072C0.299805 4.36241 0.544103 3.46517 1.0327 2.639C1.50353 1.83948 2.1387 1.2043 2.93822 0.733474C3.76439 0.244878 4.66163 0.00058038 5.62994 0.00058038C6.59825 0.00058038 7.49549 0.244878 8.32166 0.733474C9.12118 1.2043 9.75635 1.83948 10.2272 2.639C10.7158 3.46517 10.9601 4.36241 10.9601 5.33072C10.9601 5.95257 10.8579 6.55221 10.6536 7.12964C10.4493 7.6893 10.1606 8.20011 9.78745 8.66205C9.72526 8.742 9.60089 8.87526 9.41434 9.06181C9.06788 9.42604 8.82358 9.71475 8.68144 9.92796C8.42382 10.3011 8.29501 10.6564 8.29501 10.994V12.6597C8.29501 12.8995 8.23504 13.1216 8.11512 13.3259C7.99519 13.5302 7.83306 13.6924 7.62874 13.8123C7.42442 13.9322 7.20233 13.9922 6.96247 13.9922H4.29741C4.05755 13.9922 3.83546 13.9322 3.63114 13.8123C3.42682 13.6924 3.26469 13.5302 3.14476 13.3259C3.02484 13.1216 2.96487 12.8995 2.96487 12.6597V10.994C2.96487 10.6564 2.83606 10.3011 2.57844 9.92796C2.4363 9.71475 2.192 9.42604 1.84554 9.06181C1.65899 8.87526 1.53462 8.742 1.47243 8.66205Z" fill="#374151"/>
</svg>
