<svg width="17" height="16" viewBox="0 0 17 16" fill="none" xmlns="http://www.w3.org/2000/svg">
<path d="M8.63477 0.666341L14.1148 1.87967C14.2659 1.91523 14.3903 1.99523 14.4881 2.11967C14.5859 2.24412 14.6348 2.3819 14.6348 2.53301V9.18634C14.6348 9.8619 14.477 10.493 14.1614 11.0797C13.8459 11.6663 13.4081 12.1463 12.8481 12.5197L8.63477 15.333L4.42143 12.5197C3.86143 12.1463 3.42365 11.6663 3.1081 11.0797C2.79254 10.493 2.63477 9.8619 2.63477 9.18634V2.53301C2.63477 2.3819 2.68365 2.24412 2.78143 2.11967C2.87921 1.99523 3.00365 1.91523 3.15477 1.87967L8.63477 0.666341ZM8.63477 2.02634L3.9681 3.06634V9.18634C3.9681 9.63967 4.07254 10.0619 4.28143 10.453C4.49032 10.8441 4.78143 11.1641 5.15477 11.413L8.63477 13.733L12.1148 11.413C12.4881 11.1641 12.7792 10.8441 12.9881 10.453C13.197 10.0619 13.3014 9.63967 13.3014 9.18634V3.06634L8.63477 2.02634ZM11.6081 5.47967L12.5414 6.42634L8.30143 10.6663L5.47477 7.83967L6.42143 6.89301L8.30143 8.78634L11.6081 5.47967Z" fill="#374151"/>
</svg>
